<?xml version="1.0" standalone="no"?>
<!DOCTYPE svg PUBLIC "-//W3C//DTD SVG 20010904//EN"
 "http://www.w3.org/TR/2001/REC-SVG-20010904/DTD/svg10.dtd">
<svg version="1.0" xmlns="http://www.w3.org/2000/svg"
 width="700.000000pt" height="700.000000pt" viewBox="0 0 700.000000 700.000000"
 preserveAspectRatio="xMidYMid meet">
<metadata>
Created by potrace 1.14, written by Peter Selinger 2001-2017
</metadata>
<g transform="translate(0.000000,700.000000) scale(0.100000,-0.100000)"
fill="#000000" stroke="none">
<path d="M6130 6149 c-58 -50 -121 -105 -140 -123 -19 -17 -82 -72 -140 -121
-58 -50 -111 -96 -118 -102 -24 -23 -18 -26 -147 87 -28 25 -79 70 -114 100
-35 30 -82 71 -104 90 -77 68 -92 80 -97 80 -3 0 -39 -31 -80 -68 -42 -37
-102 -89 -134 -117 -33 -27 -64 -55 -70 -61 -6 -5 -43 -38 -82 -71 l-70 -61
-60 53 c-32 28 -130 114 -217 189 -163 143 -162 142 -197 106 -3 -3 -34 -30
-70 -60 -36 -30 -67 -57 -70 -61 -3 -3 -63 -55 -133 -117 l-128 -111 -23 22
c-13 12 -36 33 -52 46 -53 45 -239 205 -274 238 -19 17 -47 41 -62 53 l-28 21
-147 -128 c-82 -70 -153 -132 -159 -138 -23 -22 -127 -110 -129 -110 -3 0
-114 97 -185 161 -25 22 -63 56 -84 75 -22 19 -66 58 -98 87 -32 28 -60 52
-62 52 -4 0 -58 -46 -320 -274 -32 -28 -71 -61 -85 -73 -14 -13 -30 -23 -35
-23 -7 0 -204 166 -226 190 -17 19 -289 250 -294 250 -3 0 -6 -834 -6 -1854
l0 -1853 -432 -1 c-238 0 -447 -1 -464 -1 l-31 -1 2 -497 c2 -496 2 -498 26
-578 38 -124 90 -208 189 -305 149 -146 323 -228 525 -248 44 -4 962 -7 2040
-6 1819 1 1966 2 2040 18 205 45 388 158 509 315 55 72 90 140 117 233 l22 73
2 2358 c1 1296 1 2357 1 2357 -1 -1 -48 -42 -106 -91z m-510 -2689 c0 -1275
-4 -1868 -11 -1887 -5 -15 -24 -43 -41 -60 -80 -82 -257 -90 -356 -16 -68 51
-67 37 -68 551 -1 254 -4 465 -7 469 -4 3 -641 6 -1417 6 -1287 0 -1410 1
-1411 16 -3 54 -4 2758 -1 2769 3 9 344 12 1658 12 l1654 0 0 -1860z m-1145
-1499 l50 -1 -1 -247 c0 -137 -2 -253 -2 -258 -1 -7 -500 -10 -1489 -9 -1389
0 -1491 1 -1528 18 -54 23 -103 73 -115 116 -5 19 -10 112 -10 207 0 170 0
172 23 175 17 2 2878 1 3072 -1z"/>
<path d="M2513 4599 l0 -279 71 0 c90 -1 1802 -1 1836 0 l25 0 -1 263 c-1 144
-2 270 -3 279 -1 15 -72 16 -965 16 l-963 0 0 -279z"/>
<path d="M4928 4861 c-125 -49 -194 -132 -202 -243 -8 -110 52 -208 159 -262
255 -130 551 124 423 363 -67 125 -247 193 -380 142z"/>
<path d="M4915 4040 c-215 -86 -256 -336 -77 -472 148 -113 369 -72 467 86 27
44 30 58 30 125 0 85 -13 117 -72 182 -56 62 -122 91 -218 95 -63 3 -91 0
-130 -16z"/>
<path d="M2513 3750 l0 -280 964 0 c763 0 963 3 964 13 1 6 2 132 3 279 l1
268 -966 0 -966 0 0 -280z"/>
</g>
</svg>
